<svg width="501" height="301" viewBox="0 0 501 301" fill="none" xmlns="http://www.w3.org/2000/svg">
<rect width="501" height="301" fill="white"/>
<rect x="308" y="55" width="20" height="32" fill="white"/>
<rect x="308" y="71" width="4" height="4" fill="black"/>
<rect x="312" y="63" width="4" height="4" fill="black"/>
<rect x="308" y="67" width="4" height="4" fill="black"/>
<rect x="320" y="63" width="4" height="4" fill="black"/>
<rect x="316" y="63" width="4" height="4" fill="black"/>
<rect x="316" y="63" width="4" height="4" fill="black"/>
<rect x="324" y="71" width="4" height="4" fill="black"/>
<rect x="324" y="67" width="4" height="4" fill="black"/>
<rect x="320" y="79" width="4" height="4" fill="black"/>
<rect x="324" y="79" width="4" height="4" fill="black"/>
<rect x="316" y="79" width="4" height="4" fill="black"/>
<rect x="312" y="79" width="4" height="4" fill="black"/>
<rect x="308" y="75" width="4" height="4" fill="black"/>
<rect x="324" y="75" width="4" height="4" fill="black"/>
<rect x="284" y="55" width="20" height="32" fill="white"/>
<rect x="284" y="63" width="4" height="4" fill="black"/>
<rect x="284" y="71" width="4" height="4" fill="black"/>
<rect x="284" y="75" width="4" height="4" fill="black"/>
<rect x="288" y="71" width="4" height="4" fill="black"/>
<rect x="296" y="67" width="4" height="4" fill="black"/>
<rect x="292" y="71" width="4" height="4" fill="black"/>
<rect x="300" y="63" width="4" height="4" fill="black"/>
<rect x="296" y="75" width="4" height="4" fill="black"/>
<rect x="300" y="79" width="4" height="4" fill="black"/>
<rect x="284" y="79" width="4" height="4" fill="black"/>
<rect x="284" y="67" width="4" height="4" fill="black"/>
<rect x="260" y="55" width="20" height="32" fill="white"/>
<rect x="260" y="63" width="4" height="4" fill="black"/>
<rect x="264" y="63" width="4" height="4" fill="black"/>
<rect x="268" y="63" width="4" height="4" fill="black"/>
<rect x="272" y="63" width="4" height="4" fill="black"/>
<rect x="276" y="63" width="4" height="4" fill="black"/>
<rect x="268" y="67" width="4" height="4" fill="black"/>
<rect x="268" y="79" width="4" height="4" fill="black"/>
<rect x="268" y="71" width="4" height="4" fill="black"/>
<rect x="268" y="75" width="4" height="4" fill="black"/>
<rect x="236" y="55" width="20" height="32" fill="white"/>
<rect x="236" y="71" width="4" height="4" fill="black"/>
<rect x="236" y="75" width="4" height="4" fill="black"/>
<rect x="240" y="79" width="4" height="4" fill="black"/>
<rect x="244" y="79" width="4" height="4" fill="black"/>
<rect x="240" y="71" width="4" height="4" fill="black"/>
<rect x="240" y="63" width="4" height="4" fill="black"/>
<rect x="252" y="67" width="4" height="4" fill="black"/>
<rect x="248" y="63" width="4" height="4" fill="black"/>
<rect x="244" y="63" width="4" height="4" fill="black"/>
<rect x="244" y="71" width="4" height="4" fill="black"/>
<rect x="248" y="71" width="4" height="4" fill="black"/>
<rect x="248" y="79" width="4" height="4" fill="black"/>
<rect x="252" y="79" width="4" height="4" fill="black"/>
<rect x="236" y="67" width="4" height="4" fill="black"/>
<rect x="212" y="55" width="20" height="32" fill="white"/>
<rect x="216" y="67" width="4" height="4" fill="black"/>
<rect x="212" y="71" width="4" height="4" fill="black"/>
<rect x="220" y="79" width="4" height="4" fill="black"/>
<rect x="224" y="79" width="4" height="4" fill="black"/>
<rect x="228" y="75" width="4" height="4" fill="black"/>
<rect x="228" y="71" width="4" height="4" fill="black"/>
<rect x="220" y="67" width="4" height="4" fill="black"/>
<rect x="224" y="67" width="4" height="4" fill="black"/>
<rect x="228" y="67" width="4" height="4" fill="black"/>
<rect x="224" y="63" width="4" height="4" fill="black"/>
<rect x="220" y="59" width="4" height="4" fill="black"/>
<rect x="224" y="55" width="4" height="4" fill="black"/>
<rect x="224" y="55" width="4" height="4" fill="black"/>
<rect x="228" y="55" width="4" height="4" fill="black"/>
<rect x="216" y="79" width="4" height="4" fill="black"/>
<rect x="212" y="75" width="4" height="4" fill="black"/>
<rect x="188" y="55" width="20" height="32" fill="white"/>
<rect x="196" y="59" width="4" height="4" fill="black"/>
<rect x="200" y="59" width="4" height="4" fill="black"/>
<rect x="192" y="59" width="4" height="4" fill="black"/>
<rect x="188" y="67" width="4" height="4" fill="black"/>
<rect x="188" y="63" width="4" height="4" fill="black"/>
<rect x="204" y="63" width="4" height="4" fill="black"/>
<rect x="188" y="71" width="4" height="4" fill="black"/>
<rect x="188" y="75" width="4" height="4" fill="black"/>
<rect x="188" y="79" width="4" height="4" fill="black"/>
<rect x="204" y="75" width="4" height="4" fill="black"/>
<rect x="204" y="79" width="4" height="4" fill="black"/>
<rect x="196" y="71" width="4" height="4" fill="black"/>
<rect x="200" y="71" width="4" height="4" fill="black"/>
<rect x="192" y="71" width="4" height="4" fill="black"/>
<rect x="204" y="71" width="4" height="4" fill="black"/>
<rect x="204" y="67" width="4" height="4" fill="black"/>
<rect x="212" y="55" width="20" height="32" fill="white"/>
<rect x="216" y="63" width="4" height="4" fill="black"/>
<rect x="212" y="71" width="4" height="4" fill="black"/>
<rect x="220" y="79" width="4" height="4" fill="black"/>
<rect x="224" y="79" width="4" height="4" fill="black"/>
<rect x="228" y="75" width="4" height="4" fill="black"/>
<rect x="228" y="71" width="4" height="4" fill="black"/>
<rect x="212" y="67" width="4" height="4" fill="black"/>
<rect x="228" y="63" width="4" height="4" fill="black"/>
<rect x="228" y="67" width="4" height="4" fill="black"/>
<rect x="224" y="63" width="4" height="4" fill="black"/>
<rect x="220" y="63" width="4" height="4" fill="black"/>
<rect x="224" y="55" width="4" height="4" fill="black"/>
<rect x="224" y="59" width="4" height="4" fill="black"/>
<rect x="228" y="55" width="4" height="4" fill="black"/>
<rect x="216" y="79" width="4" height="4" fill="black"/>
<rect x="212" y="75" width="4" height="4" fill="black"/>
<rect x="259" y="160" width="15" height="24" fill="white"/>
<rect x="265" y="178" width="3" height="3" fill="black"/>
<rect x="277" y="160" width="15" height="24" fill="white"/>
<rect x="283" y="178" width="3" height="3" fill="black"/>
<rect x="295" y="160" width="15" height="24" fill="white"/>
<rect x="301" y="178" width="3" height="3" fill="black"/>
<rect x="39" y="222" width="15" height="24" fill="white"/>
<rect x="45" y="240" width="3" height="3" fill="black"/>
<rect x="57" y="222" width="15" height="24" fill="white"/>
<rect x="63" y="240" width="3" height="3" fill="black"/>
<rect x="75" y="222" width="15" height="24" fill="white"/>
<rect x="81" y="240" width="3" height="3" fill="black"/>
<rect x="116" y="222" width="15" height="24" fill="white"/>
<rect x="122" y="240" width="3" height="3" fill="black"/>
<rect x="134" y="222" width="15" height="24" fill="white"/>
<rect x="140" y="240" width="3" height="3" fill="black"/>
<rect x="152" y="222" width="15" height="24" fill="white"/>
<rect x="158" y="240" width="3" height="3" fill="black"/>
<rect x="179" y="222" width="15" height="24" fill="white"/>
<rect x="185" y="240" width="3" height="3" fill="black"/>
<rect x="197" y="222" width="15" height="24" fill="white"/>
<rect x="203" y="240" width="3" height="3" fill="black"/>
<rect x="215" y="222" width="15" height="24" fill="white"/>
<rect x="221" y="240" width="3" height="3" fill="black"/>
<rect x="338" y="222" width="15" height="24" fill="white"/>
<rect x="344" y="240" width="3" height="3" fill="black"/>
<rect x="356" y="222" width="15" height="24" fill="white"/>
<rect x="362" y="240" width="3" height="3" fill="black"/>
<rect x="374" y="222" width="15" height="24" fill="white"/>
<rect x="380" y="240" width="3" height="3" fill="black"/>
<rect x="407" y="222" width="15" height="24" fill="white"/>
<rect x="413" y="240" width="3" height="3" fill="black"/>
<rect x="425" y="222" width="15" height="24" fill="white"/>
<rect x="431" y="240" width="3" height="3" fill="black"/>
<rect x="443" y="222" width="15" height="24" fill="white"/>
<rect x="449" y="240" width="3" height="3" fill="black"/>
<line x1="258.201" y1="87.4577" x2="101.201" y2="156.458" stroke="black"/>
<line x1="258.266" y1="87.4236" x2="148.266" y2="156.424" stroke="black"/>
<line x1="258.391" y1="87.3117" x2="203.391" y2="156.312" stroke="black"/>
<line x1="258.269" y1="87.5787" x2="366.269" y2="156.579" stroke="black"/>
<line x1="258.2" y1="87.5418" x2="416.2" y2="156.542" stroke="black"/>
<rect x="102" y="160" width="15" height="24" fill="white"/>
<rect x="108" y="163" width="3" height="3" fill="black"/>
<rect x="111" y="163" width="3" height="3" fill="black"/>
<rect x="105" y="163" width="3" height="3" fill="black"/>
<rect x="102" y="169" width="3" height="3" fill="black"/>
<rect x="102" y="166" width="3" height="3" fill="black"/>
<rect x="114" y="166" width="3" height="3" fill="black"/>
<rect x="102" y="172" width="3" height="3" fill="black"/>
<rect x="102" y="175" width="3" height="3" fill="black"/>
<rect x="102" y="178" width="3" height="3" fill="black"/>
<rect x="114" y="175" width="3" height="3" fill="black"/>
<rect x="114" y="178" width="3" height="3" fill="black"/>
<rect x="108" y="172" width="3" height="3" fill="black"/>
<rect x="111" y="172" width="3" height="3" fill="black"/>
<rect x="105" y="172" width="3" height="3" fill="black"/>
<rect x="114" y="172" width="3" height="3" fill="black"/>
<rect x="114" y="169" width="3" height="3" fill="black"/>
<rect x="84" y="160" width="15" height="24" fill="white"/>
<rect x="84" y="169" width="3" height="3" fill="black"/>
<rect x="84" y="166" width="3" height="3" fill="black"/>
<rect x="84" y="172" width="3" height="3" fill="black"/>
<rect x="84" y="175" width="3" height="3" fill="black"/>
<rect x="87" y="178" width="3" height="3" fill="black"/>
<rect x="87" y="163" width="3" height="3" fill="black"/>
<rect x="90" y="163" width="3" height="3" fill="black"/>
<rect x="93" y="163" width="3" height="3" fill="black"/>
<rect x="96" y="169" width="3" height="3" fill="black"/>
<rect x="96" y="166" width="3" height="3" fill="black"/>
<rect x="96" y="166" width="3" height="3" fill="black"/>
<rect x="96" y="172" width="3" height="3" fill="black"/>
<rect x="96" y="175" width="3" height="3" fill="black"/>
<rect x="90" y="178" width="3" height="3" fill="black"/>
<rect x="93" y="178" width="3" height="3" fill="black"/>
<rect x="149" y="160" width="15" height="24" fill="white"/>
<rect x="149" y="163" width="3" height="3" fill="black"/>
<rect x="149" y="172" width="3" height="3" fill="black"/>
<rect x="149" y="175" width="3" height="3" fill="black"/>
<rect x="149" y="178" width="3" height="3" fill="black"/>
<rect x="152" y="178" width="3" height="3" fill="black"/>
<rect x="155" y="178" width="3" height="3" fill="black"/>
<rect x="158" y="178" width="3" height="3" fill="black"/>
<rect x="161" y="175" width="3" height="3" fill="black"/>
<rect x="161" y="172" width="3" height="3" fill="black"/>
<rect x="155" y="169" width="3" height="3" fill="black"/>
<rect x="158" y="169" width="3" height="3" fill="black"/>
<rect x="158" y="163" width="3" height="3" fill="black"/>
<rect x="155" y="163" width="3" height="3" fill="black"/>
<rect x="152" y="163" width="3" height="3" fill="black"/>
<rect x="152" y="169" width="3" height="3" fill="black"/>
<rect x="149" y="169" width="3" height="3" fill="black"/>
<rect x="149" y="166" width="3" height="3" fill="black"/>
<rect x="131" y="160" width="15" height="24" fill="white"/>
<rect x="131" y="169" width="3" height="3" fill="black"/>
<rect x="131" y="166" width="3" height="3" fill="black"/>
<rect x="131" y="172" width="3" height="3" fill="black"/>
<rect x="131" y="175" width="3" height="3" fill="black"/>
<rect x="134" y="178" width="3" height="3" fill="black"/>
<rect x="134" y="163" width="3" height="3" fill="black"/>
<rect x="137" y="163" width="3" height="3" fill="black"/>
<rect x="140" y="163" width="3" height="3" fill="black"/>
<rect x="143" y="169" width="3" height="3" fill="black"/>
<rect x="143" y="166" width="3" height="3" fill="black"/>
<rect x="143" y="166" width="3" height="3" fill="black"/>
<rect x="143" y="172" width="3" height="3" fill="black"/>
<rect x="143" y="175" width="3" height="3" fill="black"/>
<rect x="137" y="178" width="3" height="3" fill="black"/>
<rect x="140" y="178" width="3" height="3" fill="black"/>
<rect x="205" y="160" width="15" height="24" fill="white"/>
<rect x="205" y="163" width="3" height="3" fill="black"/>
<rect x="205" y="172" width="3" height="3" fill="black"/>
<rect x="205" y="175" width="3" height="3" fill="black"/>
<rect x="205" y="178" width="3" height="3" fill="black"/>
<rect x="208" y="178" width="3" height="3" fill="black"/>
<rect x="211" y="178" width="3" height="3" fill="black"/>
<rect x="217" y="175" width="3" height="3" fill="black"/>
<rect x="217" y="172" width="3" height="3" fill="black"/>
<rect x="217" y="166" width="3" height="3" fill="black"/>
<rect x="214" y="163" width="3" height="3" fill="black"/>
<rect x="214" y="169" width="3" height="3" fill="black"/>
<rect x="211" y="169" width="3" height="3" fill="black"/>
<rect x="208" y="163" width="3" height="3" fill="black"/>
<rect x="211" y="163" width="3" height="3" fill="black"/>
<rect x="214" y="178" width="3" height="3" fill="black"/>
<rect x="208" y="169" width="3" height="3" fill="black"/>
<rect x="205" y="169" width="3" height="3" fill="black"/>
<rect x="205" y="166" width="3" height="3" fill="black"/>
<rect x="187" y="160" width="15" height="24" fill="white"/>
<rect x="187" y="169" width="3" height="3" fill="black"/>
<rect x="187" y="166" width="3" height="3" fill="black"/>
<rect x="187" y="172" width="3" height="3" fill="black"/>
<rect x="187" y="175" width="3" height="3" fill="black"/>
<rect x="190" y="178" width="3" height="3" fill="black"/>
<rect x="190" y="163" width="3" height="3" fill="black"/>
<rect x="193" y="163" width="3" height="3" fill="black"/>
<rect x="196" y="163" width="3" height="3" fill="black"/>
<rect x="199" y="169" width="3" height="3" fill="black"/>
<rect x="199" y="166" width="3" height="3" fill="black"/>
<rect x="199" y="166" width="3" height="3" fill="black"/>
<rect x="199" y="172" width="3" height="3" fill="black"/>
<rect x="199" y="175" width="3" height="3" fill="black"/>
<rect x="193" y="178" width="3" height="3" fill="black"/>
<rect x="196" y="178" width="3" height="3" fill="black"/>
<rect x="368" y="157" width="15" height="24" fill="white"/>
<rect x="368" y="166" width="3" height="3" fill="black"/>
<rect x="368" y="169" width="3" height="3" fill="black"/>
<rect x="368" y="172" width="3" height="3" fill="black"/>
<rect x="368" y="175" width="3" height="3" fill="black"/>
<rect x="371" y="166" width="3" height="3" fill="black"/>
<rect x="374" y="163" width="3" height="3" fill="black"/>
<rect x="377" y="160" width="3" height="3" fill="black"/>
<rect x="380" y="163" width="3" height="3" fill="black"/>
<rect x="380" y="166" width="3" height="3" fill="black"/>
<rect x="380" y="169" width="3" height="3" fill="black"/>
<rect x="380" y="172" width="3" height="3" fill="black"/>
<rect x="377" y="175" width="3" height="3" fill="black"/>
<rect x="374" y="172" width="3" height="3" fill="black"/>
<rect x="374" y="169" width="3" height="3" fill="black"/>
<rect x="374" y="166" width="3" height="3" fill="black"/>
<rect x="368" y="163" width="3" height="3" fill="black"/>
<rect x="368" y="160" width="3" height="3" fill="black"/>
<rect x="350" y="157" width="15" height="24" fill="white"/>
<rect x="350" y="166" width="3" height="3" fill="black"/>
<rect x="350" y="163" width="3" height="3" fill="black"/>
<rect x="350" y="169" width="3" height="3" fill="black"/>
<rect x="350" y="172" width="3" height="3" fill="black"/>
<rect x="353" y="175" width="3" height="3" fill="black"/>
<rect x="353" y="160" width="3" height="3" fill="black"/>
<rect x="356" y="160" width="3" height="3" fill="black"/>
<rect x="359" y="160" width="3" height="3" fill="black"/>
<rect x="362" y="166" width="3" height="3" fill="black"/>
<rect x="362" y="163" width="3" height="3" fill="black"/>
<rect x="362" y="163" width="3" height="3" fill="black"/>
<rect x="362" y="169" width="3" height="3" fill="black"/>
<rect x="362" y="172" width="3" height="3" fill="black"/>
<rect x="356" y="175" width="3" height="3" fill="black"/>
<rect x="359" y="175" width="3" height="3" fill="black"/>
<rect x="418" y="157" width="15" height="24" fill="white"/>
<rect x="424" y="160" width="3" height="3" fill="black"/>
<rect x="430" y="160" width="3" height="3" fill="black"/>
<rect x="430" y="163" width="3" height="3" fill="black"/>
<rect x="430" y="175" width="3" height="3" fill="black"/>
<rect x="430" y="172" width="3" height="3" fill="black"/>
<rect x="418" y="163" width="3" height="3" fill="black"/>
<rect x="421" y="166" width="3" height="3" fill="black"/>
<rect x="424" y="166" width="3" height="3" fill="black"/>
<rect x="427" y="166" width="3" height="3" fill="black"/>
<rect x="418" y="169" width="3" height="3" fill="black"/>
<rect x="418" y="172" width="3" height="3" fill="black"/>
<rect x="418" y="175" width="3" height="3" fill="black"/>
<rect x="430" y="169" width="3" height="3" fill="black"/>
<rect x="430" y="166" width="3" height="3" fill="black"/>
<rect x="421" y="160" width="3" height="3" fill="black"/>
<rect x="427" y="160" width="3" height="3" fill="black"/>
<rect x="400" y="157" width="15" height="24" fill="white"/>
<rect x="400" y="166" width="3" height="3" fill="black"/>
<rect x="400" y="163" width="3" height="3" fill="black"/>
<rect x="400" y="169" width="3" height="3" fill="black"/>
<rect x="400" y="172" width="3" height="3" fill="black"/>
<rect x="403" y="175" width="3" height="3" fill="black"/>
<rect x="403" y="160" width="3" height="3" fill="black"/>
<rect x="406" y="160" width="3" height="3" fill="black"/>
<rect x="409" y="160" width="3" height="3" fill="black"/>
<rect x="412" y="166" width="3" height="3" fill="black"/>
<rect x="412" y="163" width="3" height="3" fill="black"/>
<rect x="412" y="163" width="3" height="3" fill="black"/>
<rect x="412" y="169" width="3" height="3" fill="black"/>
<rect x="412" y="172" width="3" height="3" fill="black"/>
<rect x="406" y="175" width="3" height="3" fill="black"/>
<rect x="409" y="175" width="3" height="3" fill="black"/>
<line x1="101.281" y1="181.414" x2="45.2808" y2="219.414" stroke="black"/>
<line x1="101.399" y1="181.302" x2="73.3987" y2="218.302" stroke="black"/>
<line x1="101.497" y1="180.946" x2="105.497" y2="217.946" stroke="black"/>
<line x1="148.383" y1="181.321" x2="117.383" y2="218.321" stroke="black"/>
<line x1="148.491" y1="181.093" x2="141.491" y2="218.093" stroke="black"/>
<line x1="148.459" y1="180.802" x2="164.459" y2="217.802" stroke="black"/>
<line x1="202.44" y1="182.238" x2="182.44" y2="219.238" stroke="black"/>
<line x1="202.5" y1="181.986" x2="203.5" y2="217.986" stroke="black"/>
<line x1="202.379" y1="181.674" x2="233.379" y2="217.674" stroke="black"/>
<line x1="366.423" y1="180.267" x2="342.423" y2="218.267" stroke="black"/>
<line x1="366.499" y1="180.026" x2="364.499" y2="218.026" stroke="black"/>
<line x1="366.423" y1="179.733" x2="390.423" y2="217.733" stroke="black"/>
<line x1="415.473" y1="180.162" x2="402.473" y2="218.162" stroke="black"/>
<line x1="415.48" y1="179.861" x2="426.48" y2="217.861" stroke="black"/>
<line x1="415.314" y1="179.611" x2="462.314" y2="217.611" stroke="black"/>
</svg>
