<svg width="501" height="301" viewBox="0 0 501 301" fill="none" xmlns="http://www.w3.org/2000/svg">
<line x1="251" y1="29" x2="251" y2="56" stroke="black" stroke-width="2"/>
<rect width="501" height="301" fill="white"/>
<rect x="301" y="56" width="20" height="32" fill="white"/>
<rect x="301" y="72" width="4" height="4" fill="black"/>
<rect x="305" y="64" width="4" height="4" fill="black"/>
<rect x="301" y="68" width="4" height="4" fill="black"/>
<rect x="313" y="64" width="4" height="4" fill="black"/>
<rect x="309" y="64" width="4" height="4" fill="black"/>
<rect x="309" y="64" width="4" height="4" fill="black"/>
<rect x="317" y="72" width="4" height="4" fill="black"/>
<rect x="317" y="68" width="4" height="4" fill="black"/>
<rect x="313" y="80" width="4" height="4" fill="black"/>
<rect x="317" y="80" width="4" height="4" fill="black"/>
<rect x="309" y="80" width="4" height="4" fill="black"/>
<rect x="305" y="80" width="4" height="4" fill="black"/>
<rect x="301" y="76" width="4" height="4" fill="black"/>
<rect x="317" y="76" width="4" height="4" fill="black"/>
<rect x="277" y="56" width="20" height="32" fill="white"/>
<rect x="277" y="64" width="4" height="4" fill="black"/>
<rect x="277" y="72" width="4" height="4" fill="black"/>
<rect x="277" y="76" width="4" height="4" fill="black"/>
<rect x="281" y="72" width="4" height="4" fill="black"/>
<rect x="289" y="68" width="4" height="4" fill="black"/>
<rect x="285" y="72" width="4" height="4" fill="black"/>
<rect x="293" y="64" width="4" height="4" fill="black"/>
<rect x="289" y="76" width="4" height="4" fill="black"/>
<rect x="293" y="80" width="4" height="4" fill="black"/>
<rect x="277" y="80" width="4" height="4" fill="black"/>
<rect x="277" y="68" width="4" height="4" fill="black"/>
<rect x="253" y="56" width="20" height="32" fill="white"/>
<rect x="253" y="64" width="4" height="4" fill="black"/>
<rect x="257" y="64" width="4" height="4" fill="black"/>
<rect x="261" y="64" width="4" height="4" fill="black"/>
<rect x="265" y="64" width="4" height="4" fill="black"/>
<rect x="269" y="64" width="4" height="4" fill="black"/>
<rect x="261" y="68" width="4" height="4" fill="black"/>
<rect x="261" y="80" width="4" height="4" fill="black"/>
<rect x="261" y="72" width="4" height="4" fill="black"/>
<rect x="261" y="76" width="4" height="4" fill="black"/>
<rect x="229" y="56" width="20" height="32" fill="white"/>
<rect x="229" y="72" width="4" height="4" fill="black"/>
<rect x="229" y="76" width="4" height="4" fill="black"/>
<rect x="233" y="80" width="4" height="4" fill="black"/>
<rect x="237" y="80" width="4" height="4" fill="black"/>
<rect x="233" y="72" width="4" height="4" fill="black"/>
<rect x="233" y="64" width="4" height="4" fill="black"/>
<rect x="245" y="68" width="4" height="4" fill="black"/>
<rect x="241" y="64" width="4" height="4" fill="black"/>
<rect x="237" y="64" width="4" height="4" fill="black"/>
<rect x="237" y="72" width="4" height="4" fill="black"/>
<rect x="241" y="72" width="4" height="4" fill="black"/>
<rect x="241" y="80" width="4" height="4" fill="black"/>
<rect x="245" y="80" width="4" height="4" fill="black"/>
<rect x="229" y="68" width="4" height="4" fill="black"/>
<rect x="205" y="56" width="20" height="32" fill="white"/>
<rect x="209" y="68" width="4" height="4" fill="black"/>
<rect x="205" y="72" width="4" height="4" fill="black"/>
<rect x="213" y="80" width="4" height="4" fill="black"/>
<rect x="217" y="80" width="4" height="4" fill="black"/>
<rect x="221" y="76" width="4" height="4" fill="black"/>
<rect x="221" y="72" width="4" height="4" fill="black"/>
<rect x="213" y="68" width="4" height="4" fill="black"/>
<rect x="217" y="68" width="4" height="4" fill="black"/>
<rect x="221" y="68" width="4" height="4" fill="black"/>
<rect x="217" y="64" width="4" height="4" fill="black"/>
<rect x="213" y="60" width="4" height="4" fill="black"/>
<rect x="217" y="56" width="4" height="4" fill="black"/>
<rect x="217" y="56" width="4" height="4" fill="black"/>
<rect x="221" y="56" width="4" height="4" fill="black"/>
<rect x="209" y="80" width="4" height="4" fill="black"/>
<rect x="205" y="76" width="4" height="4" fill="black"/>
<rect x="181" y="56" width="20" height="32" fill="white"/>
<rect x="189" y="60" width="4" height="4" fill="black"/>
<rect x="193" y="60" width="4" height="4" fill="black"/>
<rect x="185" y="60" width="4" height="4" fill="black"/>
<rect x="181" y="68" width="4" height="4" fill="black"/>
<rect x="181" y="64" width="4" height="4" fill="black"/>
<rect x="197" y="64" width="4" height="4" fill="black"/>
<rect x="181" y="72" width="4" height="4" fill="black"/>
<rect x="181" y="76" width="4" height="4" fill="black"/>
<rect x="181" y="80" width="4" height="4" fill="black"/>
<rect x="197" y="76" width="4" height="4" fill="black"/>
<rect x="197" y="80" width="4" height="4" fill="black"/>
<rect x="189" y="72" width="4" height="4" fill="black"/>
<rect x="193" y="72" width="4" height="4" fill="black"/>
<rect x="185" y="72" width="4" height="4" fill="black"/>
<rect x="197" y="72" width="4" height="4" fill="black"/>
<rect x="197" y="68" width="4" height="4" fill="black"/>
<rect x="205" y="56" width="20" height="32" fill="white"/>
<rect x="209" y="64" width="4" height="4" fill="black"/>
<rect x="205" y="72" width="4" height="4" fill="black"/>
<rect x="213" y="80" width="4" height="4" fill="black"/>
<rect x="217" y="80" width="4" height="4" fill="black"/>
<rect x="221" y="76" width="4" height="4" fill="black"/>
<rect x="221" y="72" width="4" height="4" fill="black"/>
<rect x="205" y="68" width="4" height="4" fill="black"/>
<rect x="221" y="64" width="4" height="4" fill="black"/>
<rect x="221" y="68" width="4" height="4" fill="black"/>
<rect x="217" y="64" width="4" height="4" fill="black"/>
<rect x="213" y="64" width="4" height="4" fill="black"/>
<rect x="217" y="56" width="4" height="4" fill="black"/>
<rect x="217" y="60" width="4" height="4" fill="black"/>
<rect x="221" y="56" width="4" height="4" fill="black"/>
<rect x="209" y="80" width="4" height="4" fill="black"/>
<rect x="205" y="76" width="4" height="4" fill="black"/>
<rect x="259" y="160" width="15" height="24" fill="white"/>
<rect x="265" y="178" width="3" height="3" fill="black"/>
<rect x="277" y="160" width="15" height="24" fill="white"/>
<rect x="283" y="178" width="3" height="3" fill="black"/>
<rect x="295" y="160" width="15" height="24" fill="white"/>
<rect x="301" y="178" width="3" height="3" fill="black"/>
<rect x="39" y="222" width="15" height="24" fill="white"/>
<rect x="45" y="240" width="3" height="3" fill="black"/>
<rect x="57" y="222" width="15" height="24" fill="white"/>
<rect x="63" y="240" width="3" height="3" fill="black"/>
<rect x="75" y="222" width="15" height="24" fill="white"/>
<rect x="81" y="240" width="3" height="3" fill="black"/>
<rect x="116" y="222" width="15" height="24" fill="white"/>
<rect x="122" y="240" width="3" height="3" fill="black"/>
<rect x="134" y="222" width="15" height="24" fill="white"/>
<rect x="140" y="240" width="3" height="3" fill="black"/>
<rect x="152" y="222" width="15" height="24" fill="white"/>
<rect x="158" y="240" width="3" height="3" fill="black"/>
<rect x="179" y="222" width="15" height="24" fill="white"/>
<rect x="185" y="240" width="3" height="3" fill="black"/>
<rect x="197" y="222" width="15" height="24" fill="white"/>
<rect x="203" y="240" width="3" height="3" fill="black"/>
<rect x="215" y="222" width="15" height="24" fill="white"/>
<rect x="221" y="240" width="3" height="3" fill="black"/>
<rect x="338" y="222" width="15" height="24" fill="white"/>
<rect x="344" y="240" width="3" height="3" fill="black"/>
<rect x="356" y="222" width="15" height="24" fill="white"/>
<rect x="362" y="240" width="3" height="3" fill="black"/>
<rect x="374" y="222" width="15" height="24" fill="white"/>
<rect x="380" y="240" width="3" height="3" fill="black"/>
<rect x="407" y="222" width="15" height="24" fill="white"/>
<rect x="413" y="240" width="3" height="3" fill="black"/>
<rect x="425" y="222" width="15" height="24" fill="white"/>
<rect x="431" y="240" width="3" height="3" fill="black"/>
<rect x="443" y="222" width="15" height="24" fill="white"/>
<rect x="449" y="240" width="3" height="3" fill="black"/>
<line x1="251.214" y1="85.4519" x2="101.214" y2="156.452" stroke="black"/>
<line x1="251.284" y1="85.4117" x2="148.284" y2="156.412" stroke="black"/>
<line x1="251.414" y1="85.28" x2="203.414" y2="156.28" stroke="black"/>
<line x1="251.414" y1="85.28" x2="203.414" y2="156.28" stroke="black"/>
<line x1="251.263" y1="85.5746" x2="366.263" y2="156.575" stroke="black"/>
<line x1="251.198" y1="85.5407" x2="416.198" y2="156.541" stroke="black"/>
<rect x="102" y="160" width="15" height="24" fill="white"/>
<rect x="108" y="163" width="3" height="3" fill="black"/>
<rect x="111" y="163" width="3" height="3" fill="black"/>
<rect x="105" y="163" width="3" height="3" fill="black"/>
<rect x="102" y="169" width="3" height="3" fill="black"/>
<rect x="102" y="166" width="3" height="3" fill="black"/>
<rect x="114" y="166" width="3" height="3" fill="black"/>
<rect x="102" y="172" width="3" height="3" fill="black"/>
<rect x="102" y="175" width="3" height="3" fill="black"/>
<rect x="102" y="178" width="3" height="3" fill="black"/>
<rect x="114" y="175" width="3" height="3" fill="black"/>
<rect x="114" y="178" width="3" height="3" fill="black"/>
<rect x="108" y="172" width="3" height="3" fill="black"/>
<rect x="111" y="172" width="3" height="3" fill="black"/>
<rect x="105" y="172" width="3" height="3" fill="black"/>
<rect x="114" y="172" width="3" height="3" fill="black"/>
<rect x="114" y="169" width="3" height="3" fill="black"/>
<rect x="84" y="160" width="15" height="24" fill="white"/>
<rect x="84" y="169" width="3" height="3" fill="black"/>
<rect x="84" y="166" width="3" height="3" fill="black"/>
<rect x="84" y="172" width="3" height="3" fill="black"/>
<rect x="84" y="175" width="3" height="3" fill="black"/>
<rect x="87" y="178" width="3" height="3" fill="black"/>
<rect x="87" y="163" width="3" height="3" fill="black"/>
<rect x="90" y="163" width="3" height="3" fill="black"/>
<rect x="93" y="163" width="3" height="3" fill="black"/>
<rect x="96" y="169" width="3" height="3" fill="black"/>
<rect x="96" y="166" width="3" height="3" fill="black"/>
<rect x="96" y="166" width="3" height="3" fill="black"/>
<rect x="96" y="172" width="3" height="3" fill="black"/>
<rect x="96" y="175" width="3" height="3" fill="black"/>
<rect x="90" y="178" width="3" height="3" fill="black"/>
<rect x="93" y="178" width="3" height="3" fill="black"/>
<rect x="149" y="160" width="15" height="24" fill="white"/>
<rect x="149" y="163" width="3" height="3" fill="black"/>
<rect x="149" y="172" width="3" height="3" fill="black"/>
<rect x="149" y="175" width="3" height="3" fill="black"/>
<rect x="149" y="178" width="3" height="3" fill="black"/>
<rect x="152" y="178" width="3" height="3" fill="black"/>
<rect x="155" y="178" width="3" height="3" fill="black"/>
<rect x="158" y="178" width="3" height="3" fill="black"/>
<rect x="161" y="175" width="3" height="3" fill="black"/>
<rect x="161" y="172" width="3" height="3" fill="black"/>
<rect x="155" y="169" width="3" height="3" fill="black"/>
<rect x="158" y="169" width="3" height="3" fill="black"/>
<rect x="158" y="163" width="3" height="3" fill="black"/>
<rect x="155" y="163" width="3" height="3" fill="black"/>
<rect x="152" y="163" width="3" height="3" fill="black"/>
<rect x="152" y="169" width="3" height="3" fill="black"/>
<rect x="149" y="169" width="3" height="3" fill="black"/>
<rect x="149" y="166" width="3" height="3" fill="black"/>
<rect x="131" y="160" width="15" height="24" fill="white"/>
<rect x="131" y="169" width="3" height="3" fill="black"/>
<rect x="131" y="166" width="3" height="3" fill="black"/>
<rect x="131" y="172" width="3" height="3" fill="black"/>
<rect x="131" y="175" width="3" height="3" fill="black"/>
<rect x="134" y="178" width="3" height="3" fill="black"/>
<rect x="134" y="163" width="3" height="3" fill="black"/>
<rect x="137" y="163" width="3" height="3" fill="black"/>
<rect x="140" y="163" width="3" height="3" fill="black"/>
<rect x="143" y="169" width="3" height="3" fill="black"/>
<rect x="143" y="166" width="3" height="3" fill="black"/>
<rect x="143" y="166" width="3" height="3" fill="black"/>
<rect x="143" y="172" width="3" height="3" fill="black"/>
<rect x="143" y="175" width="3" height="3" fill="black"/>
<rect x="137" y="178" width="3" height="3" fill="black"/>
<rect x="140" y="178" width="3" height="3" fill="black"/>
<rect x="205" y="160" width="15" height="24" fill="white"/>
<rect x="205" y="163" width="3" height="3" fill="black"/>
<rect x="205" y="172" width="3" height="3" fill="black"/>
<rect x="205" y="175" width="3" height="3" fill="black"/>
<rect x="205" y="178" width="3" height="3" fill="black"/>
<rect x="208" y="178" width="3" height="3" fill="black"/>
<rect x="211" y="178" width="3" height="3" fill="black"/>
<rect x="217" y="175" width="3" height="3" fill="black"/>
<rect x="217" y="172" width="3" height="3" fill="black"/>
<rect x="217" y="166" width="3" height="3" fill="black"/>
<rect x="214" y="163" width="3" height="3" fill="black"/>
<rect x="214" y="169" width="3" height="3" fill="black"/>
<rect x="211" y="169" width="3" height="3" fill="black"/>
<rect x="208" y="163" width="3" height="3" fill="black"/>
<rect x="211" y="163" width="3" height="3" fill="black"/>
<rect x="214" y="178" width="3" height="3" fill="black"/>
<rect x="208" y="169" width="3" height="3" fill="black"/>
<rect x="205" y="169" width="3" height="3" fill="black"/>
<rect x="205" y="166" width="3" height="3" fill="black"/>
<rect x="187" y="160" width="15" height="24" fill="white"/>
<rect x="187" y="169" width="3" height="3" fill="black"/>
<rect x="187" y="166" width="3" height="3" fill="black"/>
<rect x="187" y="172" width="3" height="3" fill="black"/>
<rect x="187" y="175" width="3" height="3" fill="black"/>
<rect x="190" y="178" width="3" height="3" fill="black"/>
<rect x="190" y="163" width="3" height="3" fill="black"/>
<rect x="193" y="163" width="3" height="3" fill="black"/>
<rect x="196" y="163" width="3" height="3" fill="black"/>
<rect x="199" y="169" width="3" height="3" fill="black"/>
<rect x="199" y="166" width="3" height="3" fill="black"/>
<rect x="199" y="166" width="3" height="3" fill="black"/>
<rect x="199" y="172" width="3" height="3" fill="black"/>
<rect x="199" y="175" width="3" height="3" fill="black"/>
<rect x="193" y="178" width="3" height="3" fill="black"/>
<rect x="196" y="178" width="3" height="3" fill="black"/>
<rect x="368" y="157" width="15" height="24" fill="white"/>
<rect x="368" y="166" width="3" height="3" fill="black"/>
<rect x="368" y="169" width="3" height="3" fill="black"/>
<rect x="368" y="172" width="3" height="3" fill="black"/>
<rect x="368" y="175" width="3" height="3" fill="black"/>
<rect x="371" y="166" width="3" height="3" fill="black"/>
<rect x="374" y="163" width="3" height="3" fill="black"/>
<rect x="377" y="160" width="3" height="3" fill="black"/>
<rect x="380" y="163" width="3" height="3" fill="black"/>
<rect x="380" y="166" width="3" height="3" fill="black"/>
<rect x="380" y="169" width="3" height="3" fill="black"/>
<rect x="380" y="172" width="3" height="3" fill="black"/>
<rect x="377" y="175" width="3" height="3" fill="black"/>
<rect x="374" y="172" width="3" height="3" fill="black"/>
<rect x="374" y="169" width="3" height="3" fill="black"/>
<rect x="374" y="166" width="3" height="3" fill="black"/>
<rect x="368" y="163" width="3" height="3" fill="black"/>
<rect x="368" y="160" width="3" height="3" fill="black"/>
<rect x="350" y="157" width="15" height="24" fill="white"/>
<rect x="350" y="166" width="3" height="3" fill="black"/>
<rect x="350" y="163" width="3" height="3" fill="black"/>
<rect x="350" y="169" width="3" height="3" fill="black"/>
<rect x="350" y="172" width="3" height="3" fill="black"/>
<rect x="353" y="175" width="3" height="3" fill="black"/>
<rect x="353" y="160" width="3" height="3" fill="black"/>
<rect x="356" y="160" width="3" height="3" fill="black"/>
<rect x="359" y="160" width="3" height="3" fill="black"/>
<rect x="362" y="166" width="3" height="3" fill="black"/>
<rect x="362" y="163" width="3" height="3" fill="black"/>
<rect x="362" y="163" width="3" height="3" fill="black"/>
<rect x="362" y="169" width="3" height="3" fill="black"/>
<rect x="362" y="172" width="3" height="3" fill="black"/>
<rect x="356" y="175" width="3" height="3" fill="black"/>
<rect x="359" y="175" width="3" height="3" fill="black"/>
<rect x="418" y="157" width="15" height="24" fill="white"/>
<rect x="424" y="160" width="3" height="3" fill="black"/>
<rect x="430" y="160" width="3" height="3" fill="black"/>
<rect x="430" y="163" width="3" height="3" fill="black"/>
<rect x="430" y="175" width="3" height="3" fill="black"/>
<rect x="430" y="172" width="3" height="3" fill="black"/>
<rect x="418" y="163" width="3" height="3" fill="black"/>
<rect x="421" y="166" width="3" height="3" fill="black"/>
<rect x="424" y="166" width="3" height="3" fill="black"/>
<rect x="427" y="166" width="3" height="3" fill="black"/>
<rect x="418" y="169" width="3" height="3" fill="black"/>
<rect x="418" y="172" width="3" height="3" fill="black"/>
<rect x="418" y="175" width="3" height="3" fill="black"/>
<rect x="430" y="169" width="3" height="3" fill="black"/>
<rect x="430" y="166" width="3" height="3" fill="black"/>
<rect x="421" y="160" width="3" height="3" fill="black"/>
<rect x="427" y="160" width="3" height="3" fill="black"/>
<rect x="400" y="157" width="15" height="24" fill="white"/>
<rect x="400" y="166" width="3" height="3" fill="black"/>
<rect x="400" y="163" width="3" height="3" fill="black"/>
<rect x="400" y="169" width="3" height="3" fill="black"/>
<rect x="400" y="172" width="3" height="3" fill="black"/>
<rect x="403" y="175" width="3" height="3" fill="black"/>
<rect x="403" y="160" width="3" height="3" fill="black"/>
<rect x="406" y="160" width="3" height="3" fill="black"/>
<rect x="409" y="160" width="3" height="3" fill="black"/>
<rect x="412" y="166" width="3" height="3" fill="black"/>
<rect x="412" y="163" width="3" height="3" fill="black"/>
<rect x="412" y="163" width="3" height="3" fill="black"/>
<rect x="412" y="169" width="3" height="3" fill="black"/>
<rect x="412" y="172" width="3" height="3" fill="black"/>
<rect x="406" y="175" width="3" height="3" fill="black"/>
<rect x="409" y="175" width="3" height="3" fill="black"/>
<line x1="101.281" y1="181.414" x2="45.2808" y2="219.414" stroke="black"/>
<line x1="101.399" y1="181.302" x2="73.3987" y2="218.302" stroke="black"/>
<line x1="101.497" y1="180.946" x2="105.497" y2="217.946" stroke="black"/>
<line x1="148.383" y1="181.321" x2="117.383" y2="218.321" stroke="black"/>
<line x1="148.491" y1="181.093" x2="141.491" y2="218.093" stroke="black"/>
<line x1="148.459" y1="180.802" x2="164.459" y2="217.802" stroke="black"/>
<line x1="202.44" y1="182.238" x2="182.44" y2="219.238" stroke="black"/>
<line x1="202.5" y1="181.986" x2="203.5" y2="217.986" stroke="black"/>
<line x1="202.379" y1="181.674" x2="233.379" y2="217.674" stroke="black"/>
<line x1="366.423" y1="180.267" x2="342.423" y2="218.267" stroke="black"/>
<line x1="366.499" y1="180.026" x2="364.499" y2="218.026" stroke="black"/>
<line x1="366.423" y1="179.733" x2="390.423" y2="217.733" stroke="black"/>
<line x1="415.473" y1="180.162" x2="402.473" y2="218.162" stroke="black"/>
<line x1="415.48" y1="179.861" x2="426.48" y2="217.861" stroke="black"/>
<line x1="415.314" y1="179.611" x2="462.314" y2="217.611" stroke="black"/>
<rect x="246" y="11" width="10" height="16" fill="white"/>
<rect x="250" y="11" width="2" height="2" fill="black"/>
<rect x="250" y="15" width="2" height="2" fill="black"/>
<rect x="248" y="15" width="2" height="2" fill="black"/>
<rect x="252" y="15" width="2" height="2" fill="black"/>
<rect x="252" y="23" width="2" height="2" fill="black"/>
<rect x="248" y="23" width="2" height="2" fill="black"/>
<rect x="250" y="19" width="2" height="2" fill="black"/>
<rect x="250" y="17" width="2" height="2" fill="black"/>
<rect x="250" y="21" width="2" height="2" fill="black"/>
<rect x="250" y="23" width="2" height="2" fill="black"/>
<rect x="258" y="11" width="10" height="16" fill="white"/>
<rect x="258" y="15" width="2" height="2" fill="black"/>
<rect x="262" y="13" width="2" height="2" fill="black"/>
<rect x="266" y="15" width="2" height="2" fill="black"/>
<rect x="266" y="17" width="2" height="2" fill="black"/>
<rect x="266" y="21" width="2" height="2" fill="black"/>
<rect x="266" y="23" width="2" height="2" fill="black"/>
<rect x="258" y="17" width="2" height="2" fill="black"/>
<rect x="258" y="19" width="2" height="2" fill="black"/>
<rect x="258" y="21" width="2" height="2" fill="black"/>
<rect x="258" y="23" width="2" height="2" fill="black"/>
<rect x="262" y="19" width="2" height="2" fill="black"/>
<rect x="260" y="21" width="2" height="2" fill="black"/>
<rect x="264" y="17" width="2" height="2" fill="black"/>
<rect x="266" y="19" width="2" height="2" fill="black"/>
<rect x="234" y="11" width="10" height="16" fill="white"/>
<rect x="238" y="17" width="2" height="2" fill="black"/>
<rect x="242" y="19" width="2" height="2" fill="black"/>
<rect x="234" y="15" width="2" height="2" fill="black"/>
<rect x="238" y="23" width="2" height="2" fill="black"/>
<rect x="242" y="21" width="2" height="2" fill="black"/>
<rect x="236" y="21" width="2" height="2" fill="black"/>
<rect x="240" y="23" width="2" height="2" fill="black"/>
<rect x="234" y="23" width="2" height="2" fill="black"/>
<rect x="234" y="23" width="2" height="2" fill="black"/>
<rect x="242" y="15" width="2" height="2" fill="black"/>
<rect x="242" y="17" width="2" height="2" fill="black"/>
<rect x="238" y="15" width="2" height="2" fill="black"/>
<rect x="240" y="13" width="2" height="2" fill="black"/>
<rect x="238" y="13" width="2" height="2" fill="black"/>
<rect x="236" y="13" width="2" height="2" fill="black"/>
<rect x="236" y="19" width="2" height="2" fill="black"/>
<rect x="236" y="23" width="2" height="2" fill="black"/>
<line x1="251" y1="29" x2="251" y2="60" stroke="black" stroke-width="2"/>
</svg>
