<svg width="1002" height="359" viewBox="0 0 1002 359" fill="none" xmlns="http://www.w3.org/2000/svg">
<line x1="251" y1="87" x2="251" y2="114" stroke="black" stroke-width="2"/>
<rect y="58" width="501" height="301" fill="white"/>
<rect x="301" y="114" width="20" height="32" fill="white"/>
<rect x="301" y="130" width="4" height="4" fill="black"/>
<rect x="305" y="122" width="4" height="4" fill="black"/>
<rect x="301" y="126" width="4" height="4" fill="black"/>
<rect x="313" y="122" width="4" height="4" fill="black"/>
<rect x="309" y="122" width="4" height="4" fill="black"/>
<rect x="309" y="122" width="4" height="4" fill="black"/>
<rect x="317" y="130" width="4" height="4" fill="black"/>
<rect x="317" y="126" width="4" height="4" fill="black"/>
<rect x="313" y="138" width="4" height="4" fill="black"/>
<rect x="317" y="138" width="4" height="4" fill="black"/>
<rect x="309" y="138" width="4" height="4" fill="black"/>
<rect x="305" y="138" width="4" height="4" fill="black"/>
<rect x="301" y="134" width="4" height="4" fill="black"/>
<rect x="317" y="134" width="4" height="4" fill="black"/>
<rect x="277" y="114" width="20" height="32" fill="white"/>
<rect x="277" y="122" width="4" height="4" fill="black"/>
<rect x="277" y="130" width="4" height="4" fill="black"/>
<rect x="277" y="134" width="4" height="4" fill="black"/>
<rect x="281" y="130" width="4" height="4" fill="black"/>
<rect x="289" y="126" width="4" height="4" fill="black"/>
<rect x="285" y="130" width="4" height="4" fill="black"/>
<rect x="293" y="122" width="4" height="4" fill="black"/>
<rect x="289" y="134" width="4" height="4" fill="black"/>
<rect x="293" y="138" width="4" height="4" fill="black"/>
<rect x="277" y="138" width="4" height="4" fill="black"/>
<rect x="277" y="126" width="4" height="4" fill="black"/>
<rect x="253" y="114" width="20" height="32" fill="white"/>
<rect x="253" y="122" width="4" height="4" fill="black"/>
<rect x="257" y="122" width="4" height="4" fill="black"/>
<rect x="261" y="122" width="4" height="4" fill="black"/>
<rect x="265" y="122" width="4" height="4" fill="black"/>
<rect x="269" y="122" width="4" height="4" fill="black"/>
<rect x="261" y="126" width="4" height="4" fill="black"/>
<rect x="261" y="138" width="4" height="4" fill="black"/>
<rect x="261" y="130" width="4" height="4" fill="black"/>
<rect x="261" y="134" width="4" height="4" fill="black"/>
<rect x="229" y="114" width="20" height="32" fill="white"/>
<rect x="229" y="130" width="4" height="4" fill="black"/>
<rect x="229" y="134" width="4" height="4" fill="black"/>
<rect x="233" y="138" width="4" height="4" fill="black"/>
<rect x="237" y="138" width="4" height="4" fill="black"/>
<rect x="233" y="130" width="4" height="4" fill="black"/>
<rect x="233" y="122" width="4" height="4" fill="black"/>
<rect x="245" y="126" width="4" height="4" fill="black"/>
<rect x="241" y="122" width="4" height="4" fill="black"/>
<rect x="237" y="122" width="4" height="4" fill="black"/>
<rect x="237" y="130" width="4" height="4" fill="black"/>
<rect x="241" y="130" width="4" height="4" fill="black"/>
<rect x="241" y="138" width="4" height="4" fill="black"/>
<rect x="245" y="138" width="4" height="4" fill="black"/>
<rect x="229" y="126" width="4" height="4" fill="black"/>
<rect x="205" y="114" width="20" height="32" fill="white"/>
<rect x="209" y="126" width="4" height="4" fill="black"/>
<rect x="205" y="130" width="4" height="4" fill="black"/>
<rect x="213" y="138" width="4" height="4" fill="black"/>
<rect x="217" y="138" width="4" height="4" fill="black"/>
<rect x="221" y="134" width="4" height="4" fill="black"/>
<rect x="221" y="130" width="4" height="4" fill="black"/>
<rect x="213" y="126" width="4" height="4" fill="black"/>
<rect x="217" y="126" width="4" height="4" fill="black"/>
<rect x="221" y="126" width="4" height="4" fill="black"/>
<rect x="217" y="122" width="4" height="4" fill="black"/>
<rect x="213" y="118" width="4" height="4" fill="black"/>
<rect x="217" y="114" width="4" height="4" fill="black"/>
<rect x="217" y="114" width="4" height="4" fill="black"/>
<rect x="221" y="114" width="4" height="4" fill="black"/>
<rect x="209" y="138" width="4" height="4" fill="black"/>
<rect x="205" y="134" width="4" height="4" fill="black"/>
<rect x="181" y="114" width="20" height="32" fill="white"/>
<rect x="189" y="118" width="4" height="4" fill="black"/>
<rect x="193" y="118" width="4" height="4" fill="black"/>
<rect x="185" y="118" width="4" height="4" fill="black"/>
<rect x="181" y="126" width="4" height="4" fill="black"/>
<rect x="181" y="122" width="4" height="4" fill="black"/>
<rect x="197" y="122" width="4" height="4" fill="black"/>
<rect x="181" y="130" width="4" height="4" fill="black"/>
<rect x="181" y="134" width="4" height="4" fill="black"/>
<rect x="181" y="138" width="4" height="4" fill="black"/>
<rect x="197" y="134" width="4" height="4" fill="black"/>
<rect x="197" y="138" width="4" height="4" fill="black"/>
<rect x="189" y="130" width="4" height="4" fill="black"/>
<rect x="193" y="130" width="4" height="4" fill="black"/>
<rect x="185" y="130" width="4" height="4" fill="black"/>
<rect x="197" y="130" width="4" height="4" fill="black"/>
<rect x="197" y="126" width="4" height="4" fill="black"/>
<rect x="205" y="114" width="20" height="32" fill="white"/>
<rect x="209" y="122" width="4" height="4" fill="black"/>
<rect x="205" y="130" width="4" height="4" fill="black"/>
<rect x="213" y="138" width="4" height="4" fill="black"/>
<rect x="217" y="138" width="4" height="4" fill="black"/>
<rect x="221" y="134" width="4" height="4" fill="black"/>
<rect x="221" y="130" width="4" height="4" fill="black"/>
<rect x="205" y="126" width="4" height="4" fill="black"/>
<rect x="221" y="122" width="4" height="4" fill="black"/>
<rect x="221" y="126" width="4" height="4" fill="black"/>
<rect x="217" y="122" width="4" height="4" fill="black"/>
<rect x="213" y="122" width="4" height="4" fill="black"/>
<rect x="217" y="114" width="4" height="4" fill="black"/>
<rect x="217" y="118" width="4" height="4" fill="black"/>
<rect x="221" y="114" width="4" height="4" fill="black"/>
<rect x="209" y="138" width="4" height="4" fill="black"/>
<rect x="205" y="134" width="4" height="4" fill="black"/>
<rect x="259" y="218" width="15" height="24" fill="white"/>
<rect x="265" y="236" width="3" height="3" fill="black"/>
<rect x="277" y="218" width="15" height="24" fill="white"/>
<rect x="283" y="236" width="3" height="3" fill="black"/>
<rect x="295" y="218" width="15" height="24" fill="white"/>
<rect x="301" y="236" width="3" height="3" fill="black"/>
<rect x="39" y="280" width="15" height="24" fill="white"/>
<rect x="45" y="298" width="3" height="3" fill="black"/>
<rect x="57" y="280" width="15" height="24" fill="white"/>
<rect x="63" y="298" width="3" height="3" fill="black"/>
<rect x="75" y="280" width="15" height="24" fill="white"/>
<rect x="81" y="298" width="3" height="3" fill="black"/>
<rect x="116" y="280" width="15" height="24" fill="white"/>
<rect x="122" y="298" width="3" height="3" fill="black"/>
<rect x="134" y="280" width="15" height="24" fill="white"/>
<rect x="140" y="298" width="3" height="3" fill="black"/>
<rect x="152" y="280" width="15" height="24" fill="white"/>
<rect x="158" y="298" width="3" height="3" fill="black"/>
<rect x="179" y="280" width="15" height="24" fill="white"/>
<rect x="185" y="298" width="3" height="3" fill="black"/>
<rect x="197" y="280" width="15" height="24" fill="white"/>
<rect x="203" y="298" width="3" height="3" fill="black"/>
<rect x="215" y="280" width="15" height="24" fill="white"/>
<rect x="221" y="298" width="3" height="3" fill="black"/>
<rect x="338" y="280" width="15" height="24" fill="white"/>
<rect x="344" y="298" width="3" height="3" fill="black"/>
<rect x="356" y="280" width="15" height="24" fill="white"/>
<rect x="362" y="298" width="3" height="3" fill="black"/>
<rect x="374" y="280" width="15" height="24" fill="white"/>
<rect x="380" y="298" width="3" height="3" fill="black"/>
<rect x="407" y="280" width="15" height="24" fill="white"/>
<rect x="413" y="298" width="3" height="3" fill="black"/>
<rect x="425" y="280" width="15" height="24" fill="white"/>
<rect x="431" y="298" width="3" height="3" fill="black"/>
<rect x="443" y="280" width="15" height="24" fill="white"/>
<rect x="449" y="298" width="3" height="3" fill="black"/>
<line x1="251.214" y1="143.452" x2="101.214" y2="214.452" stroke="black"/>
<line x1="251.284" y1="143.412" x2="148.284" y2="214.412" stroke="black"/>
<line x1="251.414" y1="143.28" x2="203.414" y2="214.28" stroke="black"/>
<line x1="251.414" y1="143.28" x2="203.414" y2="214.28" stroke="black"/>
<line x1="251.263" y1="143.575" x2="366.263" y2="214.575" stroke="black"/>
<line x1="251.198" y1="143.541" x2="416.198" y2="214.541" stroke="black"/>
<rect x="102" y="218" width="15" height="24" fill="white"/>
<rect x="108" y="221" width="3" height="3" fill="black"/>
<rect x="111" y="221" width="3" height="3" fill="black"/>
<rect x="105" y="221" width="3" height="3" fill="black"/>
<rect x="102" y="227" width="3" height="3" fill="black"/>
<rect x="102" y="224" width="3" height="3" fill="black"/>
<rect x="114" y="224" width="3" height="3" fill="black"/>
<rect x="102" y="230" width="3" height="3" fill="black"/>
<rect x="102" y="233" width="3" height="3" fill="black"/>
<rect x="102" y="236" width="3" height="3" fill="black"/>
<rect x="114" y="233" width="3" height="3" fill="black"/>
<rect x="114" y="236" width="3" height="3" fill="black"/>
<rect x="108" y="230" width="3" height="3" fill="black"/>
<rect x="111" y="230" width="3" height="3" fill="black"/>
<rect x="105" y="230" width="3" height="3" fill="black"/>
<rect x="114" y="230" width="3" height="3" fill="black"/>
<rect x="114" y="227" width="3" height="3" fill="black"/>
<rect x="84" y="218" width="15" height="24" fill="white"/>
<rect x="84" y="227" width="3" height="3" fill="black"/>
<rect x="84" y="224" width="3" height="3" fill="black"/>
<rect x="84" y="230" width="3" height="3" fill="black"/>
<rect x="84" y="233" width="3" height="3" fill="black"/>
<rect x="87" y="236" width="3" height="3" fill="black"/>
<rect x="87" y="221" width="3" height="3" fill="black"/>
<rect x="90" y="221" width="3" height="3" fill="black"/>
<rect x="93" y="221" width="3" height="3" fill="black"/>
<rect x="96" y="227" width="3" height="3" fill="black"/>
<rect x="96" y="224" width="3" height="3" fill="black"/>
<rect x="96" y="224" width="3" height="3" fill="black"/>
<rect x="96" y="230" width="3" height="3" fill="black"/>
<rect x="96" y="233" width="3" height="3" fill="black"/>
<rect x="90" y="236" width="3" height="3" fill="black"/>
<rect x="93" y="236" width="3" height="3" fill="black"/>
<rect x="149" y="218" width="15" height="24" fill="white"/>
<rect x="149" y="221" width="3" height="3" fill="black"/>
<rect x="149" y="230" width="3" height="3" fill="black"/>
<rect x="149" y="233" width="3" height="3" fill="black"/>
<rect x="149" y="236" width="3" height="3" fill="black"/>
<rect x="152" y="236" width="3" height="3" fill="black"/>
<rect x="155" y="236" width="3" height="3" fill="black"/>
<rect x="158" y="236" width="3" height="3" fill="black"/>
<rect x="161" y="233" width="3" height="3" fill="black"/>
<rect x="161" y="230" width="3" height="3" fill="black"/>
<rect x="155" y="227" width="3" height="3" fill="black"/>
<rect x="158" y="227" width="3" height="3" fill="black"/>
<rect x="158" y="221" width="3" height="3" fill="black"/>
<rect x="155" y="221" width="3" height="3" fill="black"/>
<rect x="152" y="221" width="3" height="3" fill="black"/>
<rect x="152" y="227" width="3" height="3" fill="black"/>
<rect x="149" y="227" width="3" height="3" fill="black"/>
<rect x="149" y="224" width="3" height="3" fill="black"/>
<rect x="131" y="218" width="15" height="24" fill="white"/>
<rect x="131" y="227" width="3" height="3" fill="black"/>
<rect x="131" y="224" width="3" height="3" fill="black"/>
<rect x="131" y="230" width="3" height="3" fill="black"/>
<rect x="131" y="233" width="3" height="3" fill="black"/>
<rect x="134" y="236" width="3" height="3" fill="black"/>
<rect x="134" y="221" width="3" height="3" fill="black"/>
<rect x="137" y="221" width="3" height="3" fill="black"/>
<rect x="140" y="221" width="3" height="3" fill="black"/>
<rect x="143" y="227" width="3" height="3" fill="black"/>
<rect x="143" y="224" width="3" height="3" fill="black"/>
<rect x="143" y="224" width="3" height="3" fill="black"/>
<rect x="143" y="230" width="3" height="3" fill="black"/>
<rect x="143" y="233" width="3" height="3" fill="black"/>
<rect x="137" y="236" width="3" height="3" fill="black"/>
<rect x="140" y="236" width="3" height="3" fill="black"/>
<rect x="205" y="218" width="15" height="24" fill="white"/>
<rect x="205" y="221" width="3" height="3" fill="black"/>
<rect x="205" y="230" width="3" height="3" fill="black"/>
<rect x="205" y="233" width="3" height="3" fill="black"/>
<rect x="205" y="236" width="3" height="3" fill="black"/>
<rect x="208" y="236" width="3" height="3" fill="black"/>
<rect x="211" y="236" width="3" height="3" fill="black"/>
<rect x="217" y="233" width="3" height="3" fill="black"/>
<rect x="217" y="230" width="3" height="3" fill="black"/>
<rect x="217" y="224" width="3" height="3" fill="black"/>
<rect x="214" y="221" width="3" height="3" fill="black"/>
<rect x="214" y="227" width="3" height="3" fill="black"/>
<rect x="211" y="227" width="3" height="3" fill="black"/>
<rect x="208" y="221" width="3" height="3" fill="black"/>
<rect x="211" y="221" width="3" height="3" fill="black"/>
<rect x="214" y="236" width="3" height="3" fill="black"/>
<rect x="208" y="227" width="3" height="3" fill="black"/>
<rect x="205" y="227" width="3" height="3" fill="black"/>
<rect x="205" y="224" width="3" height="3" fill="black"/>
<rect x="187" y="218" width="15" height="24" fill="white"/>
<rect x="187" y="227" width="3" height="3" fill="black"/>
<rect x="187" y="224" width="3" height="3" fill="black"/>
<rect x="187" y="230" width="3" height="3" fill="black"/>
<rect x="187" y="233" width="3" height="3" fill="black"/>
<rect x="190" y="236" width="3" height="3" fill="black"/>
<rect x="190" y="221" width="3" height="3" fill="black"/>
<rect x="193" y="221" width="3" height="3" fill="black"/>
<rect x="196" y="221" width="3" height="3" fill="black"/>
<rect x="199" y="227" width="3" height="3" fill="black"/>
<rect x="199" y="224" width="3" height="3" fill="black"/>
<rect x="199" y="224" width="3" height="3" fill="black"/>
<rect x="199" y="230" width="3" height="3" fill="black"/>
<rect x="199" y="233" width="3" height="3" fill="black"/>
<rect x="193" y="236" width="3" height="3" fill="black"/>
<rect x="196" y="236" width="3" height="3" fill="black"/>
<rect x="368" y="215" width="15" height="24" fill="white"/>
<rect x="368" y="224" width="3" height="3" fill="black"/>
<rect x="368" y="227" width="3" height="3" fill="black"/>
<rect x="368" y="230" width="3" height="3" fill="black"/>
<rect x="368" y="233" width="3" height="3" fill="black"/>
<rect x="371" y="224" width="3" height="3" fill="black"/>
<rect x="374" y="221" width="3" height="3" fill="black"/>
<rect x="377" y="218" width="3" height="3" fill="black"/>
<rect x="380" y="221" width="3" height="3" fill="black"/>
<rect x="380" y="224" width="3" height="3" fill="black"/>
<rect x="380" y="227" width="3" height="3" fill="black"/>
<rect x="380" y="230" width="3" height="3" fill="black"/>
<rect x="377" y="233" width="3" height="3" fill="black"/>
<rect x="374" y="230" width="3" height="3" fill="black"/>
<rect x="374" y="227" width="3" height="3" fill="black"/>
<rect x="374" y="224" width="3" height="3" fill="black"/>
<rect x="368" y="221" width="3" height="3" fill="black"/>
<rect x="368" y="218" width="3" height="3" fill="black"/>
<rect x="350" y="215" width="15" height="24" fill="white"/>
<rect x="350" y="224" width="3" height="3" fill="black"/>
<rect x="350" y="221" width="3" height="3" fill="black"/>
<rect x="350" y="227" width="3" height="3" fill="black"/>
<rect x="350" y="230" width="3" height="3" fill="black"/>
<rect x="353" y="233" width="3" height="3" fill="black"/>
<rect x="353" y="218" width="3" height="3" fill="black"/>
<rect x="356" y="218" width="3" height="3" fill="black"/>
<rect x="359" y="218" width="3" height="3" fill="black"/>
<rect x="362" y="224" width="3" height="3" fill="black"/>
<rect x="362" y="221" width="3" height="3" fill="black"/>
<rect x="362" y="221" width="3" height="3" fill="black"/>
<rect x="362" y="227" width="3" height="3" fill="black"/>
<rect x="362" y="230" width="3" height="3" fill="black"/>
<rect x="356" y="233" width="3" height="3" fill="black"/>
<rect x="359" y="233" width="3" height="3" fill="black"/>
<rect x="418" y="215" width="15" height="24" fill="white"/>
<rect x="424" y="218" width="3" height="3" fill="black"/>
<rect x="430" y="218" width="3" height="3" fill="black"/>
<rect x="430" y="221" width="3" height="3" fill="black"/>
<rect x="430" y="233" width="3" height="3" fill="black"/>
<rect x="430" y="230" width="3" height="3" fill="black"/>
<rect x="418" y="221" width="3" height="3" fill="black"/>
<rect x="421" y="224" width="3" height="3" fill="black"/>
<rect x="424" y="224" width="3" height="3" fill="black"/>
<rect x="427" y="224" width="3" height="3" fill="black"/>
<rect x="418" y="227" width="3" height="3" fill="black"/>
<rect x="418" y="230" width="3" height="3" fill="black"/>
<rect x="418" y="233" width="3" height="3" fill="black"/>
<rect x="430" y="227" width="3" height="3" fill="black"/>
<rect x="430" y="224" width="3" height="3" fill="black"/>
<rect x="421" y="218" width="3" height="3" fill="black"/>
<rect x="427" y="218" width="3" height="3" fill="black"/>
<rect x="400" y="215" width="15" height="24" fill="white"/>
<rect x="400" y="224" width="3" height="3" fill="black"/>
<rect x="400" y="221" width="3" height="3" fill="black"/>
<rect x="400" y="227" width="3" height="3" fill="black"/>
<rect x="400" y="230" width="3" height="3" fill="black"/>
<rect x="403" y="233" width="3" height="3" fill="black"/>
<rect x="403" y="218" width="3" height="3" fill="black"/>
<rect x="406" y="218" width="3" height="3" fill="black"/>
<rect x="409" y="218" width="3" height="3" fill="black"/>
<rect x="412" y="224" width="3" height="3" fill="black"/>
<rect x="412" y="221" width="3" height="3" fill="black"/>
<rect x="412" y="221" width="3" height="3" fill="black"/>
<rect x="412" y="227" width="3" height="3" fill="black"/>
<rect x="412" y="230" width="3" height="3" fill="black"/>
<rect x="406" y="233" width="3" height="3" fill="black"/>
<rect x="409" y="233" width="3" height="3" fill="black"/>
<line x1="101.281" y1="239.414" x2="45.2808" y2="277.414" stroke="black"/>
<line x1="101.399" y1="239.302" x2="73.3987" y2="276.302" stroke="black"/>
<line x1="101.497" y1="238.946" x2="105.497" y2="275.946" stroke="black"/>
<line x1="148.383" y1="239.321" x2="117.383" y2="276.321" stroke="black"/>
<line x1="148.491" y1="239.093" x2="141.491" y2="276.093" stroke="black"/>
<line x1="148.459" y1="238.802" x2="164.459" y2="275.802" stroke="black"/>
<line x1="202.44" y1="240.238" x2="182.44" y2="277.238" stroke="black"/>
<line x1="202.5" y1="239.986" x2="203.5" y2="275.986" stroke="black"/>
<line x1="202.379" y1="239.674" x2="233.379" y2="275.674" stroke="black"/>
<line x1="366.423" y1="238.267" x2="342.423" y2="276.267" stroke="black"/>
<line x1="366.499" y1="238.026" x2="364.499" y2="276.026" stroke="black"/>
<line x1="366.423" y1="237.733" x2="390.423" y2="275.733" stroke="black"/>
<line x1="415.473" y1="238.162" x2="402.473" y2="276.162" stroke="black"/>
<line x1="415.48" y1="237.861" x2="426.48" y2="275.861" stroke="black"/>
<line x1="415.314" y1="237.611" x2="462.314" y2="275.611" stroke="black"/>
<line x1="752" y1="87" x2="752" y2="114" stroke="black" stroke-width="2"/>
<rect x="501" y="58" width="501" height="301" fill="white"/>
<rect x="670" y="114" width="20" height="32" fill="white"/>
<rect x="678" y="126" width="4" height="4" fill="black"/>
<rect x="686" y="130" width="4" height="4" fill="black"/>
<rect x="670" y="122" width="4" height="4" fill="black"/>
<rect x="678" y="138" width="4" height="4" fill="black"/>
<rect x="686" y="134" width="4" height="4" fill="black"/>
<rect x="674" y="134" width="4" height="4" fill="black"/>
<rect x="682" y="138" width="4" height="4" fill="black"/>
<rect x="670" y="138" width="4" height="4" fill="black"/>
<rect x="670" y="138" width="4" height="4" fill="black"/>
<rect x="686" y="122" width="4" height="4" fill="black"/>
<rect x="686" y="126" width="4" height="4" fill="black"/>
<rect x="678" y="122" width="4" height="4" fill="black"/>
<rect x="682" y="118" width="4" height="4" fill="black"/>
<rect x="678" y="118" width="4" height="4" fill="black"/>
<rect x="674" y="118" width="4" height="4" fill="black"/>
<rect x="674" y="130" width="4" height="4" fill="black"/>
<rect x="674" y="138" width="4" height="4" fill="black"/>
<rect x="694" y="114" width="20" height="32" fill="white"/>
<rect x="694" y="130" width="4" height="4" fill="black"/>
<rect x="694" y="134" width="4" height="4" fill="black"/>
<rect x="698" y="138" width="4" height="4" fill="black"/>
<rect x="702" y="138" width="4" height="4" fill="black"/>
<rect x="698" y="130" width="4" height="4" fill="black"/>
<rect x="698" y="122" width="4" height="4" fill="black"/>
<rect x="710" y="126" width="4" height="4" fill="black"/>
<rect x="706" y="122" width="4" height="4" fill="black"/>
<rect x="702" y="122" width="4" height="4" fill="black"/>
<rect x="702" y="130" width="4" height="4" fill="black"/>
<rect x="706" y="130" width="4" height="4" fill="black"/>
<rect x="706" y="138" width="4" height="4" fill="black"/>
<rect x="710" y="138" width="4" height="4" fill="black"/>
<rect x="694" y="126" width="4" height="4" fill="black"/>
<rect x="718" y="114" width="20" height="32" fill="white"/>
<rect x="718" y="126" width="4" height="4" fill="black"/>
<rect x="722" y="122" width="4" height="4" fill="black"/>
<rect x="726" y="122" width="4" height="4" fill="black"/>
<rect x="730" y="122" width="4" height="4" fill="black"/>
<rect x="734" y="126" width="4" height="4" fill="black"/>
<rect x="718" y="130" width="4" height="4" fill="black"/>
<rect x="718" y="134" width="4" height="4" fill="black"/>
<rect x="722" y="138" width="4" height="4" fill="black"/>
<rect x="726" y="138" width="4" height="4" fill="black"/>
<rect x="734" y="134" width="4" height="4" fill="black"/>
<rect x="730" y="138" width="4" height="4" fill="black"/>
<rect x="742" y="114" width="20" height="32" fill="white"/>
<rect x="742" y="126" width="4" height="4" fill="black"/>
<rect x="746" y="122" width="4" height="4" fill="black"/>
<rect x="750" y="122" width="4" height="4" fill="black"/>
<rect x="754" y="122" width="4" height="4" fill="black"/>
<rect x="750" y="130" width="4" height="4" fill="black"/>
<rect x="754" y="130" width="4" height="4" fill="black"/>
<rect x="758" y="122" width="4" height="4" fill="black"/>
<rect x="758" y="126" width="4" height="4" fill="black"/>
<rect x="758" y="130" width="4" height="4" fill="black"/>
<rect x="758" y="134" width="4" height="4" fill="black"/>
<rect x="758" y="138" width="4" height="4" fill="black"/>
<rect x="742" y="138" width="4" height="4" fill="black"/>
<rect x="742" y="134" width="4" height="4" fill="black"/>
<rect x="746" y="130" width="4" height="4" fill="black"/>
<rect x="766" y="114" width="20" height="32" fill="white"/>
<rect x="766" y="122" width="4" height="4" fill="black"/>
<rect x="770" y="122" width="4" height="4" fill="black"/>
<rect x="774" y="122" width="4" height="4" fill="black"/>
<rect x="778" y="122" width="4" height="4" fill="black"/>
<rect x="782" y="122" width="4" height="4" fill="black"/>
<rect x="774" y="126" width="4" height="4" fill="black"/>
<rect x="774" y="138" width="4" height="4" fill="black"/>
<rect x="774" y="130" width="4" height="4" fill="black"/>
<rect x="774" y="134" width="4" height="4" fill="black"/>
<rect x="790" y="114" width="20" height="32" fill="white"/>
<rect x="790" y="122" width="4" height="4" fill="black"/>
<rect x="790" y="130" width="4" height="4" fill="black"/>
<rect x="790" y="134" width="4" height="4" fill="black"/>
<rect x="794" y="130" width="4" height="4" fill="black"/>
<rect x="802" y="126" width="4" height="4" fill="black"/>
<rect x="798" y="130" width="4" height="4" fill="black"/>
<rect x="806" y="122" width="4" height="4" fill="black"/>
<rect x="802" y="134" width="4" height="4" fill="black"/>
<rect x="806" y="138" width="4" height="4" fill="black"/>
<rect x="790" y="138" width="4" height="4" fill="black"/>
<rect x="790" y="126" width="4" height="4" fill="black"/>
<rect x="814" y="114" width="20" height="32" fill="white"/>
<rect x="814" y="130" width="4" height="4" fill="black"/>
<rect x="818" y="122" width="4" height="4" fill="black"/>
<rect x="814" y="126" width="4" height="4" fill="black"/>
<rect x="826" y="122" width="4" height="4" fill="black"/>
<rect x="822" y="122" width="4" height="4" fill="black"/>
<rect x="822" y="122" width="4" height="4" fill="black"/>
<rect x="830" y="130" width="4" height="4" fill="black"/>
<rect x="830" y="126" width="4" height="4" fill="black"/>
<rect x="826" y="138" width="4" height="4" fill="black"/>
<rect x="830" y="138" width="4" height="4" fill="black"/>
<rect x="822" y="138" width="4" height="4" fill="black"/>
<rect x="818" y="138" width="4" height="4" fill="black"/>
<rect x="814" y="134" width="4" height="4" fill="black"/>
<rect x="830" y="134" width="4" height="4" fill="black"/>
<rect x="760" y="218" width="15" height="24" fill="white"/>
<rect x="766" y="236" width="3" height="3" fill="black"/>
<rect x="778" y="218" width="15" height="24" fill="white"/>
<rect x="784" y="236" width="3" height="3" fill="black"/>
<rect x="796" y="218" width="15" height="24" fill="white"/>
<rect x="802" y="236" width="3" height="3" fill="black"/>
<rect x="540" y="280" width="15" height="24" fill="white"/>
<rect x="546" y="298" width="3" height="3" fill="black"/>
<rect x="558" y="280" width="15" height="24" fill="white"/>
<rect x="564" y="298" width="3" height="3" fill="black"/>
<rect x="576" y="280" width="15" height="24" fill="white"/>
<rect x="582" y="298" width="3" height="3" fill="black"/>
<rect x="617" y="280" width="15" height="24" fill="white"/>
<rect x="623" y="298" width="3" height="3" fill="black"/>
<rect x="635" y="280" width="15" height="24" fill="white"/>
<rect x="641" y="298" width="3" height="3" fill="black"/>
<rect x="653" y="280" width="15" height="24" fill="white"/>
<rect x="659" y="298" width="3" height="3" fill="black"/>
<rect x="680" y="280" width="15" height="24" fill="white"/>
<rect x="686" y="298" width="3" height="3" fill="black"/>
<rect x="698" y="280" width="15" height="24" fill="white"/>
<rect x="704" y="298" width="3" height="3" fill="black"/>
<rect x="716" y="280" width="15" height="24" fill="white"/>
<rect x="722" y="298" width="3" height="3" fill="black"/>
<rect x="839" y="280" width="15" height="24" fill="white"/>
<rect x="845" y="298" width="3" height="3" fill="black"/>
<rect x="857" y="280" width="15" height="24" fill="white"/>
<rect x="863" y="298" width="3" height="3" fill="black"/>
<rect x="875" y="280" width="15" height="24" fill="white"/>
<rect x="881" y="298" width="3" height="3" fill="black"/>
<rect x="908" y="280" width="15" height="24" fill="white"/>
<rect x="914" y="298" width="3" height="3" fill="black"/>
<rect x="926" y="280" width="15" height="24" fill="white"/>
<rect x="932" y="298" width="3" height="3" fill="black"/>
<rect x="944" y="280" width="15" height="24" fill="white"/>
<rect x="950" y="298" width="3" height="3" fill="black"/>
<line x1="752.214" y1="143.452" x2="602.214" y2="214.452" stroke="black"/>
<line x1="752.284" y1="143.412" x2="649.284" y2="214.412" stroke="black"/>
<line x1="752.414" y1="143.28" x2="704.414" y2="214.28" stroke="black"/>
<line x1="752.414" y1="143.28" x2="704.414" y2="214.28" stroke="black"/>
<line x1="752.263" y1="143.575" x2="867.263" y2="214.575" stroke="black"/>
<line x1="752.198" y1="143.541" x2="917.198" y2="214.541" stroke="black"/>
<rect x="603" y="218" width="15" height="24" fill="white"/>
<rect x="603" y="221" width="3" height="3" fill="black"/>
<rect x="606" y="221" width="3" height="3" fill="black"/>
<rect x="609" y="221" width="3" height="3" fill="black"/>
<rect x="612" y="221" width="3" height="3" fill="black"/>
<rect x="615" y="221" width="3" height="3" fill="black"/>
<rect x="615" y="227" width="3" height="3" fill="black"/>
<rect x="615" y="233" width="3" height="3" fill="black"/>
<rect x="615" y="236" width="3" height="3" fill="black"/>
<rect x="612" y="236" width="3" height="3" fill="black"/>
<rect x="615" y="230" width="3" height="3" fill="black"/>
<rect x="606" y="236" width="3" height="3" fill="black"/>
<rect x="603" y="233" width="3" height="3" fill="black"/>
<rect x="603" y="236" width="3" height="3" fill="black"/>
<rect x="603" y="230" width="3" height="3" fill="black"/>
<rect x="603" y="224" width="3" height="3" fill="black"/>
<rect x="603" y="224" width="3" height="3" fill="black"/>
<rect x="603" y="227" width="3" height="3" fill="black"/>
<rect x="609" y="236" width="3" height="3" fill="black"/>
<rect x="615" y="224" width="3" height="3" fill="black"/>
<rect x="585" y="218" width="15" height="24" fill="white"/>
<rect x="585" y="227" width="3" height="3" fill="black"/>
<rect x="585" y="224" width="3" height="3" fill="black"/>
<rect x="585" y="230" width="3" height="3" fill="black"/>
<rect x="585" y="233" width="3" height="3" fill="black"/>
<rect x="588" y="236" width="3" height="3" fill="black"/>
<rect x="588" y="221" width="3" height="3" fill="black"/>
<rect x="591" y="221" width="3" height="3" fill="black"/>
<rect x="594" y="221" width="3" height="3" fill="black"/>
<rect x="597" y="227" width="3" height="3" fill="black"/>
<rect x="597" y="224" width="3" height="3" fill="black"/>
<rect x="597" y="224" width="3" height="3" fill="black"/>
<rect x="597" y="230" width="3" height="3" fill="black"/>
<rect x="597" y="233" width="3" height="3" fill="black"/>
<rect x="591" y="236" width="3" height="3" fill="black"/>
<rect x="594" y="236" width="3" height="3" fill="black"/>
<rect x="650" y="218" width="15" height="24" fill="white"/>
<rect x="653" y="221" width="3" height="3" fill="black"/>
<rect x="650" y="221" width="3" height="3" fill="black"/>
<rect x="656" y="221" width="3" height="3" fill="black"/>
<rect x="656" y="227" width="3" height="3" fill="black"/>
<rect x="656" y="230" width="3" height="3" fill="black"/>
<rect x="650" y="236" width="3" height="3" fill="black"/>
<rect x="650" y="236" width="3" height="3" fill="black"/>
<rect x="653" y="236" width="3" height="3" fill="black"/>
<rect x="656" y="236" width="3" height="3" fill="black"/>
<rect x="659" y="236" width="3" height="3" fill="black"/>
<rect x="662" y="236" width="3" height="3" fill="black"/>
<rect x="656" y="233" width="3" height="3" fill="black"/>
<rect x="656" y="224" width="3" height="3" fill="black"/>
<rect x="632" y="218" width="15" height="24" fill="white"/>
<rect x="632" y="227" width="3" height="3" fill="black"/>
<rect x="632" y="224" width="3" height="3" fill="black"/>
<rect x="632" y="230" width="3" height="3" fill="black"/>
<rect x="632" y="233" width="3" height="3" fill="black"/>
<rect x="635" y="236" width="3" height="3" fill="black"/>
<rect x="635" y="221" width="3" height="3" fill="black"/>
<rect x="638" y="221" width="3" height="3" fill="black"/>
<rect x="641" y="221" width="3" height="3" fill="black"/>
<rect x="644" y="227" width="3" height="3" fill="black"/>
<rect x="644" y="224" width="3" height="3" fill="black"/>
<rect x="644" y="224" width="3" height="3" fill="black"/>
<rect x="644" y="230" width="3" height="3" fill="black"/>
<rect x="644" y="233" width="3" height="3" fill="black"/>
<rect x="638" y="236" width="3" height="3" fill="black"/>
<rect x="641" y="236" width="3" height="3" fill="black"/>
<rect x="706" y="218" width="15" height="24" fill="white"/>
<rect x="706" y="221" width="3" height="3" fill="black"/>
<rect x="712" y="221" width="3" height="3" fill="black"/>
<rect x="715" y="221" width="3" height="3" fill="black"/>
<rect x="718" y="221" width="3" height="3" fill="black"/>
<rect x="718" y="224" width="3" height="3" fill="black"/>
<rect x="718" y="227" width="3" height="3" fill="black"/>
<rect x="715" y="227" width="3" height="3" fill="black"/>
<rect x="706" y="227" width="3" height="3" fill="black"/>
<rect x="709" y="227" width="3" height="3" fill="black"/>
<rect x="706" y="230" width="3" height="3" fill="black"/>
<rect x="706" y="233" width="3" height="3" fill="black"/>
<rect x="709" y="236" width="3" height="3" fill="black"/>
<rect x="712" y="236" width="3" height="3" fill="black"/>
<rect x="715" y="236" width="3" height="3" fill="black"/>
<rect x="718" y="236" width="3" height="3" fill="black"/>
<rect x="706" y="236" width="3" height="3" fill="black"/>
<rect x="712" y="227" width="3" height="3" fill="black"/>
<rect x="709" y="221" width="3" height="3" fill="black"/>
<rect x="688" y="218" width="15" height="24" fill="white"/>
<rect x="688" y="227" width="3" height="3" fill="black"/>
<rect x="688" y="224" width="3" height="3" fill="black"/>
<rect x="688" y="230" width="3" height="3" fill="black"/>
<rect x="688" y="233" width="3" height="3" fill="black"/>
<rect x="691" y="236" width="3" height="3" fill="black"/>
<rect x="691" y="221" width="3" height="3" fill="black"/>
<rect x="694" y="221" width="3" height="3" fill="black"/>
<rect x="697" y="221" width="3" height="3" fill="black"/>
<rect x="700" y="227" width="3" height="3" fill="black"/>
<rect x="700" y="224" width="3" height="3" fill="black"/>
<rect x="700" y="224" width="3" height="3" fill="black"/>
<rect x="700" y="230" width="3" height="3" fill="black"/>
<rect x="700" y="233" width="3" height="3" fill="black"/>
<rect x="694" y="236" width="3" height="3" fill="black"/>
<rect x="697" y="236" width="3" height="3" fill="black"/>
<rect x="869" y="215" width="15" height="24" fill="white"/>
<rect x="875" y="224" width="3" height="3" fill="black"/>
<rect x="881" y="218" width="3" height="3" fill="black"/>
<rect x="881" y="221" width="3" height="3" fill="black"/>
<rect x="881" y="224" width="3" height="3" fill="black"/>
<rect x="881" y="227" width="3" height="3" fill="black"/>
<rect x="881" y="233" width="3" height="3" fill="black"/>
<rect x="872" y="233" width="3" height="3" fill="black"/>
<rect x="875" y="233" width="3" height="3" fill="black"/>
<rect x="878" y="233" width="3" height="3" fill="black"/>
<rect x="869" y="233" width="3" height="3" fill="black"/>
<rect x="869" y="230" width="3" height="3" fill="black"/>
<rect x="869" y="227" width="3" height="3" fill="black"/>
<rect x="869" y="224" width="3" height="3" fill="black"/>
<rect x="872" y="224" width="3" height="3" fill="black"/>
<rect x="869" y="221" width="3" height="3" fill="black"/>
<rect x="869" y="218" width="3" height="3" fill="black"/>
<path d="M881 230H884V233H881V230Z" fill="black"/>
<rect x="875" y="218" width="3" height="3" fill="black"/>
<rect x="878" y="218" width="3" height="3" fill="black"/>
<rect x="878" y="224" width="3" height="3" fill="black"/>
<rect x="872" y="218" width="3" height="3" fill="black"/>
<rect x="851" y="215" width="15" height="24" fill="white"/>
<rect x="851" y="224" width="3" height="3" fill="black"/>
<rect x="851" y="221" width="3" height="3" fill="black"/>
<rect x="851" y="227" width="3" height="3" fill="black"/>
<rect x="851" y="230" width="3" height="3" fill="black"/>
<rect x="854" y="233" width="3" height="3" fill="black"/>
<rect x="854" y="218" width="3" height="3" fill="black"/>
<rect x="857" y="218" width="3" height="3" fill="black"/>
<rect x="860" y="218" width="3" height="3" fill="black"/>
<rect x="863" y="224" width="3" height="3" fill="black"/>
<rect x="863" y="221" width="3" height="3" fill="black"/>
<rect x="863" y="221" width="3" height="3" fill="black"/>
<rect x="863" y="227" width="3" height="3" fill="black"/>
<rect x="863" y="230" width="3" height="3" fill="black"/>
<rect x="857" y="233" width="3" height="3" fill="black"/>
<rect x="860" y="233" width="3" height="3" fill="black"/>
<rect x="919" y="215" width="15" height="24" fill="white"/>
<rect x="928" y="218" width="3" height="3" fill="black"/>
<rect x="925" y="218" width="3" height="3" fill="black"/>
<rect x="919" y="218" width="3" height="3" fill="black"/>
<rect x="922" y="218" width="3" height="3" fill="black"/>
<rect x="919" y="221" width="3" height="3" fill="black"/>
<rect x="919" y="224" width="3" height="3" fill="black"/>
<rect x="922" y="224" width="3" height="3" fill="black"/>
<rect x="931" y="218" width="3" height="3" fill="black"/>
<rect x="931" y="221" width="3" height="3" fill="black"/>
<rect x="931" y="224" width="3" height="3" fill="black"/>
<rect x="925" y="224" width="3" height="3" fill="black"/>
<rect x="928" y="224" width="3" height="3" fill="black"/>
<rect x="928" y="233" width="3" height="3" fill="black"/>
<rect x="931" y="233" width="3" height="3" fill="black"/>
<rect x="925" y="233" width="3" height="3" fill="black"/>
<rect x="922" y="233" width="3" height="3" fill="black"/>
<rect x="919" y="233" width="3" height="3" fill="black"/>
<rect x="931" y="227" width="3" height="3" fill="black"/>
<rect x="931" y="230" width="3" height="3" fill="black"/>
<rect x="901" y="215" width="15" height="24" fill="white"/>
<rect x="901" y="224" width="3" height="3" fill="black"/>
<rect x="901" y="221" width="3" height="3" fill="black"/>
<rect x="901" y="227" width="3" height="3" fill="black"/>
<rect x="901" y="230" width="3" height="3" fill="black"/>
<rect x="904" y="233" width="3" height="3" fill="black"/>
<rect x="904" y="218" width="3" height="3" fill="black"/>
<rect x="907" y="218" width="3" height="3" fill="black"/>
<rect x="910" y="218" width="3" height="3" fill="black"/>
<rect x="913" y="224" width="3" height="3" fill="black"/>
<rect x="913" y="221" width="3" height="3" fill="black"/>
<rect x="913" y="221" width="3" height="3" fill="black"/>
<rect x="913" y="227" width="3" height="3" fill="black"/>
<rect x="913" y="230" width="3" height="3" fill="black"/>
<rect x="907" y="233" width="3" height="3" fill="black"/>
<rect x="910" y="233" width="3" height="3" fill="black"/>
<line x1="602.281" y1="239.414" x2="546.281" y2="277.414" stroke="black"/>
<line x1="602.399" y1="239.302" x2="574.399" y2="276.302" stroke="black"/>
<line x1="602.497" y1="238.946" x2="606.497" y2="275.946" stroke="black"/>
<line x1="649.383" y1="239.321" x2="618.383" y2="276.321" stroke="black"/>
<line x1="649.491" y1="239.093" x2="642.491" y2="276.093" stroke="black"/>
<line x1="649.459" y1="238.802" x2="665.459" y2="275.802" stroke="black"/>
<line x1="703.44" y1="240.238" x2="683.44" y2="277.238" stroke="black"/>
<line x1="703.5" y1="239.986" x2="704.5" y2="275.986" stroke="black"/>
<line x1="703.379" y1="239.674" x2="734.379" y2="275.674" stroke="black"/>
<line x1="867.423" y1="238.267" x2="843.423" y2="276.267" stroke="black"/>
<line x1="867.499" y1="238.026" x2="865.499" y2="276.026" stroke="black"/>
<line x1="867.423" y1="237.733" x2="891.423" y2="275.733" stroke="black"/>
<line x1="916.473" y1="238.162" x2="903.473" y2="276.162" stroke="black"/>
<line x1="916.48" y1="237.861" x2="927.48" y2="275.861" stroke="black"/>
<line x1="916.314" y1="237.611" x2="963.314" y2="275.611" stroke="black"/>
<rect width="1002" height="58" fill="white"/>
<rect x="496" y="29" width="10" height="16" fill="white"/>
<rect x="500" y="29" width="2" height="2" fill="black"/>
<rect x="500" y="33" width="2" height="2" fill="black"/>
<rect x="498" y="33" width="2" height="2" fill="black"/>
<rect x="502" y="33" width="2" height="2" fill="black"/>
<rect x="502" y="41" width="2" height="2" fill="black"/>
<rect x="498" y="41" width="2" height="2" fill="black"/>
<rect x="500" y="37" width="2" height="2" fill="black"/>
<rect x="500" y="35" width="2" height="2" fill="black"/>
<rect x="500" y="39" width="2" height="2" fill="black"/>
<rect x="500" y="41" width="2" height="2" fill="black"/>
<rect x="508" y="29" width="10" height="16" fill="white"/>
<rect x="508" y="33" width="2" height="2" fill="black"/>
<rect x="512" y="31" width="2" height="2" fill="black"/>
<rect x="516" y="33" width="2" height="2" fill="black"/>
<rect x="516" y="35" width="2" height="2" fill="black"/>
<rect x="516" y="39" width="2" height="2" fill="black"/>
<rect x="516" y="41" width="2" height="2" fill="black"/>
<rect x="508" y="35" width="2" height="2" fill="black"/>
<rect x="508" y="37" width="2" height="2" fill="black"/>
<rect x="508" y="39" width="2" height="2" fill="black"/>
<rect x="508" y="41" width="2" height="2" fill="black"/>
<rect x="512" y="37" width="2" height="2" fill="black"/>
<rect x="510" y="39" width="2" height="2" fill="black"/>
<rect x="514" y="35" width="2" height="2" fill="black"/>
<rect x="516" y="37" width="2" height="2" fill="black"/>
<rect x="484" y="29" width="10" height="16" fill="white"/>
<rect x="488" y="35" width="2" height="2" fill="black"/>
<rect x="492" y="37" width="2" height="2" fill="black"/>
<rect x="484" y="33" width="2" height="2" fill="black"/>
<rect x="488" y="41" width="2" height="2" fill="black"/>
<rect x="492" y="39" width="2" height="2" fill="black"/>
<rect x="486" y="39" width="2" height="2" fill="black"/>
<rect x="490" y="41" width="2" height="2" fill="black"/>
<rect x="484" y="41" width="2" height="2" fill="black"/>
<rect x="484" y="41" width="2" height="2" fill="black"/>
<rect x="492" y="33" width="2" height="2" fill="black"/>
<rect x="492" y="35" width="2" height="2" fill="black"/>
<rect x="488" y="33" width="2" height="2" fill="black"/>
<rect x="490" y="31" width="2" height="2" fill="black"/>
<rect x="488" y="31" width="2" height="2" fill="black"/>
<rect x="486" y="31" width="2" height="2" fill="black"/>
<rect x="486" y="37" width="2" height="2" fill="black"/>
<rect x="486" y="41" width="2" height="2" fill="black"/>
<line x1="501.277" y1="45.0391" x2="751.277" y2="117.039" stroke="black" stroke-width="2"/>
<line x1="501.283" y1="44.9592" x2="250.283" y2="118.959" stroke="black" stroke-width="2"/>
</svg>
